# xmcd CD database file
#
# Track frame offsets:
#	150
#	12820
#	27185
#	47455
#	75992
#	89292
#	99937
#	116982
#	128015
#	142207
#	153495
#
# Disc length: 2358 seconds
#
# Revision: 0
# Processed by: cddbd v1.5.2PL0 Copyright (c) Steve Scherf et al.
# Submitted via: CDex 1.70beta3
#
DISCID=7f09340b
DTITLE=Miki Hirayama - CABARET GIRL
DYEAR=1987
DGENRE=Jazz
TTITLE0=IT'S ONLY A PEPER MOON
TTITLE1=GEORGIA ON MY MIND
TTITLE2=YOU'D BE SO NICE TO COME HOME TO
TTITLE3=SATIN DOLL
TTITLE4=STERRA BY STARLIGHT
TTITLE5=I CAN'T WRITE THE WORDS
TTITLE6=FRIENDS
TTITLE7=BABY FACE
TTITLE8=DINAH
TTITLE9=BYE BYE BLACK BIRD
TTITLE10=MOON A LULLUBY MOON
EXTD=YEAR: 1987
EXTT0=
EXTT1=
EXTT2=
EXTT3=
EXTT4=
EXTT5=
EXTT6=
EXTT7=
EXTT8=
EXTT9=
EXTT10=
PLAYORDER=
